<svg width="32" height="32" viewBox="0 0 32 32" fill="none" xmlns="http://www.w3.org/2000/svg">
<path d="M8.48722 8.38256L8.48722 8.38258L8.49098 8.38133L9.52831 8.0378C9.52891 8.0376 9.52942 8.03745 9.52982 8.03734C9.53217 8.03827 9.53799 8.04115 9.54501 8.04831C9.55353 8.057 9.55876 8.06697 9.56094 8.07491C9.56264 8.0811 9.56284 8.08655 9.56052 8.09424C9.44518 8.47713 9.33771 8.88241 9.23448 9.30911L9.23446 9.30911L9.23359 9.31281L7.92693 14.8995L7.92689 14.8996C7.17922 18.101 7.32615 20.693 8.56369 22.6916C9.80115 24.69 12.057 25.9786 15.2581 26.7398L15.2605 26.7403L16.296 26.9813L14.687 27.5108C14.6866 27.5109 14.6862 27.5111 14.6857 27.5112C12.0862 28.3492 10.2254 28.3748 8.8282 27.6599C7.43063 26.9448 6.36097 25.4193 5.51598 22.8188L3.80967 17.5533C3.80962 17.5531 3.80957 17.553 3.80952 17.5528C2.97116 14.9524 2.94225 13.0876 3.65439 11.6885C4.36617 10.2901 5.88771 9.22069 8.48722 8.38256Z" fill="#030A70" stroke="#030A70"/>
<path d="M20.5531 4.24657L20.5545 4.24689L22.781 4.76685C22.7811 4.76686 22.7811 4.76688 22.7812 4.76689C25.5262 5.40896 27.1908 6.38144 28.0483 7.76359C28.9059 9.14577 29.0368 11.0673 28.3947 13.8059L27.0881 19.3792L27.0879 19.38C26.538 21.7432 25.7385 23.3111 24.6431 24.2484C23.5647 25.1713 22.1224 25.5472 20.1294 25.3556L20.1294 25.3556L20.1214 25.3549C19.4852 25.304 18.7914 25.1889 18.0389 25.0073L18.0374 25.0069L15.7974 24.4736L15.797 24.4735C13.0648 23.8248 11.4026 22.8525 10.5446 21.4712C9.68703 20.0904 9.55309 18.1721 10.195 15.4341L10.1951 15.4339L11.5016 9.84784C11.5016 9.84769 11.5017 9.84753 11.5017 9.84738C11.7635 8.73493 12.0729 7.78792 12.4502 7.02065L12.4502 7.02066L12.4517 7.01763C13.1872 5.49624 14.1503 4.5834 15.413 4.14764C16.6989 3.70384 18.3671 3.72951 20.5531 4.24657ZM20.8716 17.9013L20.8716 17.9013L20.8733 17.8946C21.0727 17.0968 20.594 16.2758 19.7759 16.0748L15.8981 15.0887L15.8961 15.0883C15.1011 14.8895 14.2783 15.3647 14.0765 16.1721C13.8778 16.9668 14.3525 17.7892 15.1593 17.9915C15.1596 17.9916 15.1599 17.9916 15.1603 17.9917L19.0383 18.9779L19.0643 18.9845L19.0908 18.9883C19.1 18.9896 19.11 18.9911 19.1206 18.9927C19.1957 19.0038 19.3054 19.02 19.4149 19.02C20.0884 19.02 20.6918 18.5803 20.8716 17.9013ZM24.7782 13.3946L24.7783 13.3946L24.7806 13.3851C24.9756 12.5858 24.5098 11.7546 23.6774 11.5669L17.2178 9.92866L17.2161 9.92825C16.4211 9.72948 15.5983 10.2047 15.3965 11.0121C15.1978 11.8068 15.6725 12.6292 16.4793 12.8315C16.4796 12.8316 16.4799 12.8316 16.4803 12.8317L22.9453 14.4713L22.9711 14.4779L22.9975 14.4816C23.0067 14.4829 23.0166 14.4844 23.0273 14.486C23.1024 14.4971 23.2121 14.5133 23.3215 14.5133C23.9951 14.5133 24.5985 14.0736 24.7782 13.3946Z" fill="#030A70" stroke="#030A70"/>
</svg>
