<svg width="32" height="32" viewBox="0 0 32 32" fill="none" xmlns="http://www.w3.org/2000/svg">
<path d="M3.60948 14.6289L3.60948 14.6289L3.60754 14.6264C2.85049 13.653 2.49536 12.395 2.61726 11.0877C2.61729 11.0873 2.61733 11.0869 2.61736 11.0865L2.9761 7.43279C3.25595 5.45741 3.82479 4.1697 4.71332 3.36579C5.59909 2.56438 6.88845 2.16669 8.7862 2.16669H11.9862H13.9595H18.0129H19.9862H23.1329C25.0237 2.16669 26.3139 2.56426 27.2001 3.3617C28.0885 4.16116 28.6569 5.43937 28.9298 7.39391L29.3152 11.0745C29.3152 11.0753 29.3153 11.076 29.3154 11.0767C29.4369 12.3462 29.1065 13.5663 28.3862 14.5267L28.3861 14.5266L28.3807 14.5342C27.4802 15.7828 26.0353 16.5 24.4129 16.5C22.9223 16.5 21.4781 15.7647 20.5409 14.5597L20.1221 14.0213L19.7347 14.5827C18.91 15.7778 17.5588 16.5 15.9995 16.5C14.4441 16.5 13.0537 15.7412 12.241 14.5341L11.8488 13.9517L11.4267 14.5127C10.5034 15.7397 9.03523 16.5 7.51953 16.5C5.93342 16.5 4.5233 15.8193 3.60948 14.6289Z" fill="#030A70" stroke="#030A70"/>
<path d="M15.1844 22.7108L15.1854 22.7107C16.6512 22.5577 17.6735 22.8086 18.3213 23.3309C18.9569 23.8434 19.333 24.7002 19.3268 25.9976H19.3268V26V29.1867C19.3268 29.2706 19.2573 29.34 19.1735 29.34H12.8135C12.7296 29.34 12.6602 29.2706 12.6602 29.1867V25.5334C12.6602 24.0785 13.7508 22.8575 15.1844 22.7108Z" fill="#030A70" stroke="#030A70"/>
<path d="M5.12574 18.4447L5.12571 18.4448L5.13441 18.4477C5.51364 18.5741 5.90156 18.6754 6.30928 18.7341C6.45774 18.7588 6.6528 18.7898 6.84646 18.793C7.07047 18.8199 7.29475 18.8333 7.51919 18.8333C9.05076 18.8333 10.5503 18.3131 11.7795 17.4112C12.9671 18.3154 14.447 18.8333 15.9992 18.8333C17.5606 18.8333 19.0205 18.3395 20.2074 17.4363C21.4314 18.3244 22.9055 18.8333 24.4125 18.8333C24.6675 18.8333 24.9241 18.8193 25.169 18.7909C25.3218 18.7781 25.4834 18.7636 25.6491 18.7342C26.103 18.6742 26.5091 18.5437 26.8697 18.4277L26.8855 18.4227L26.8855 18.4227L26.8928 18.4203C27.438 18.2357 27.9925 18.6384 27.9925 19.2V23.1733C27.9925 26.5772 25.2297 29.34 21.8259 29.34C21.742 29.34 21.6725 29.2705 21.6725 29.1866V26C21.6725 24.1901 21.1179 22.7064 19.9742 21.6822C18.9658 20.7649 17.6208 20.34 16.0259 20.34C15.6793 20.34 15.3278 20.3538 14.9464 20.3961C12.3168 20.6633 10.3259 22.8797 10.3259 25.5333V29.1866C10.3259 29.2705 10.2564 29.34 10.1725 29.34C6.76867 29.34 4.00586 26.5772 4.00586 23.1733V19.2266C4.00586 18.648 4.57542 18.2499 5.12574 18.4447Z" fill="#030A70" stroke="#030A70"/>
</svg>
