<svg width="32" height="32" viewBox="0 0 32 32" fill="none" xmlns="http://www.w3.org/2000/svg">
<path d="M28.8213 10.412V10.4134V21.5867C28.8213 23.9139 28.1295 25.7113 26.9144 26.9265C25.6993 28.1416 23.9019 28.8334 21.5746 28.8334H10.4146C8.08741 28.8334 6.29014 28.1416 5.07508 26.925C3.85994 25.7084 3.16797 23.9076 3.16797 21.5734V10.4134C3.16797 8.08612 3.85973 6.2887 5.07486 5.07357C6.28998 3.85845 8.0874 3.16669 10.4146 3.16669H21.588C23.9153 3.16669 25.7125 3.85849 26.9259 5.07335C28.1391 6.28811 28.8277 8.08507 28.8213 10.412ZM23.188 6.85335L23.3737 6.38911C23.2875 6.35464 23.2099 6.34106 23.1621 6.33389C23.1419 6.33086 23.1141 6.32725 23.1061 6.32614C23.0926 6.32429 23.0878 6.32341 23.086 6.32306L23.0375 6.31335H23.0314C22.9962 6.30367 22.9245 6.28669 22.8413 6.28669H18.9346C18.1118 6.28669 17.4346 6.96388 17.4346 7.78669C17.4346 8.6095 18.1118 9.28669 18.9346 9.28669H19.3946C16.433 12.1072 12.8243 14.115 8.81463 15.1146C7.99587 15.3152 7.51669 16.1365 7.71623 16.9346L7.71619 16.9346L7.71795 16.9413C7.89506 17.6104 8.49078 18.0734 9.17464 18.0734C9.17858 18.0734 9.18282 18.0734 9.18735 18.0734C9.25834 18.0736 9.39964 18.074 9.55056 18.0281C14.0031 16.9154 18.0205 14.7031 21.328 11.5925V11.6934C21.328 12.5162 22.0052 13.1934 22.828 13.1934C23.4758 13.1934 24.0334 12.7735 24.2412 12.1934H24.3413V11.6934V7.78669C24.3413 7.74333 24.3359 7.7055 24.3292 7.67486C24.327 7.66494 24.3247 7.65557 24.3222 7.64683C24.3164 7.59544 24.3072 7.552 24.2994 7.51921C24.2886 7.474 24.2851 7.46228 24.283 7.45538C24.2815 7.45012 24.2807 7.44768 24.2783 7.43529C24.2778 7.43299 24.2773 7.43026 24.2767 7.42643C24.276 7.42264 24.2753 7.41776 24.2743 7.41114C24.2728 7.40133 24.2693 7.37707 24.2654 7.35479C24.2581 7.31372 24.2452 7.25238 24.2164 7.18288C24.187 7.09792 24.1458 7.03479 24.1182 6.99607C24.1018 6.9731 24.0855 6.95259 24.0761 6.94072L24.076 6.94058C24.0645 6.92611 24.0596 6.91996 24.0546 6.91336L23.6546 7.21335L24.0546 6.91335L24.0503 6.90756C24.0118 6.8562 23.9536 6.77859 23.8749 6.6998L23.8489 6.67386C23.8487 6.67361 23.8484 6.67337 23.8482 6.67312L23.8132 6.63812L23.7284 6.55335H23.6727C23.6684 6.5512 23.6647 6.54935 23.6616 6.54783L23.6582 6.54614C23.652 6.54303 23.648 6.54096 23.6456 6.53973L23.6421 6.5374L23.6319 6.53127C23.6305 6.53044 23.6273 6.52839 23.6227 6.52535C23.5889 6.50342 23.4755 6.42986 23.3737 6.38912L23.188 6.85335ZM23.0623 6.32201C23.0623 6.32204 23.0611 6.32175 23.0583 6.32101C23.0609 6.3216 23.0623 6.32198 23.0623 6.32201ZM9.17464 25.7C9.99744 25.7 10.6746 25.0228 10.6746 24.2V21.44C10.6746 20.6172 9.99744 19.94 9.17464 19.94C8.35183 19.94 7.67464 20.6172 7.67464 21.44V24.2C7.67464 25.0228 8.35183 25.7 9.17464 25.7ZM16.0013 25.7C16.8241 25.7 17.5013 25.0228 17.5013 24.2V18.6667C17.5013 17.8439 16.8241 17.1667 16.0013 17.1667C15.1785 17.1667 14.5013 17.8439 14.5013 18.6667V24.2C14.5013 25.0228 15.1785 25.7 16.0013 25.7ZM22.828 25.7C23.6508 25.7 24.328 25.0228 24.328 24.2V15.9067C24.328 15.0839 23.6508 14.4067 22.828 14.4067C22.0052 14.4067 21.328 15.0839 21.328 15.9067V24.2C21.328 25.0228 22.0052 25.7 22.828 25.7Z" fill="#030A70" stroke="#030A70"/>
</svg>
