<svg width="32" height="32" viewBox="0 0 32 32" fill="none" xmlns="http://www.w3.org/2000/svg">
<path d="M11.5258 18.0998L9.58371 20.0419C8.99232 19.5241 8.09577 19.5329 7.52876 20.0968C6.92965 20.6793 6.92954 21.6404 7.52846 22.2229L8.52041 23.2149C8.81626 23.5274 9.22076 23.66 9.58602 23.66C9.96481 23.66 10.3475 23.5189 10.6462 23.2202L13.6462 20.2202C14.2282 19.6383 14.2282 18.6817 13.6462 18.0998L13.6463 18.0997L13.6402 18.0939C13.0497 17.5231 12.111 17.5146 11.5258 18.0998ZM11.5258 8.76647L9.58371 10.7086C8.99232 10.1907 8.09578 10.1996 7.52877 10.7635C6.92963 11.3459 6.92954 12.3071 7.52849 12.8896L8.52039 13.8815C8.81625 14.1941 9.22075 14.3267 9.58602 14.3267C9.9648 14.3267 10.3475 14.1856 10.6462 13.8869L13.6462 10.8869C14.2282 10.305 14.2282 9.3484 13.6462 8.76647L13.6463 8.76642L13.6402 8.76053C13.0497 8.18976 12.111 8.1813 11.5258 8.76647ZM10.4127 3.16669H21.586C23.9132 3.16669 25.7107 3.85845 26.9258 5.07357C28.1409 6.2887 28.8327 8.08612 28.8327 10.4134V21.5867C28.8327 23.9139 28.1409 25.7113 26.9258 26.9265C25.7107 28.1416 23.9132 28.8334 21.586 28.8334H10.4127C8.08545 28.8334 6.28803 28.1416 5.0729 26.9265C3.85778 25.7113 3.16602 23.9139 3.16602 21.5867V10.4134C3.16602 8.08612 3.85778 6.2887 5.0729 5.07357C6.28803 3.85845 8.08545 3.16669 10.4127 3.16669ZM16.4127 22.66H23.4127C24.2532 22.66 24.9127 21.9785 24.9127 21.16C24.9127 20.3416 24.2532 19.66 23.4127 19.66H16.4127C15.5899 19.66 14.9127 20.3372 14.9127 21.16C14.9127 21.9828 15.5899 22.66 16.4127 22.66ZM16.4127 13.3267H23.4127C24.2532 13.3267 24.9127 12.6451 24.9127 11.8267C24.9127 11.0082 24.2532 10.3267 23.4127 10.3267H16.4127C15.5899 10.3267 14.9127 11.0039 14.9127 11.8267C14.9127 12.6495 15.5899 13.3267 16.4127 13.3267Z" fill="#030A70" stroke="#030A70"/>
</svg>
