<svg width="20" height="20" viewBox="0 0 20 20" fill="none" xmlns="http://www.w3.org/2000/svg">
<path d="M2.64062 6.20001L9.99895 10.4583L17.3073 6.22499" stroke="#030A70" stroke-width="1.5" stroke-linecap="round" stroke-linejoin="round"/>
<path d="M10 18.0083V10.45" stroke="#030A70" stroke-width="1.5" stroke-linecap="round" stroke-linejoin="round"/>
<path d="M18.0088 7.64167V12.3584C18.0088 12.4 18.0088 12.4333 18.0005 12.475C17.4172 11.9667 16.6672 11.6667 15.8338 11.6667C15.0505 11.6667 14.3255 11.9417 13.7505 12.4C12.9838 13.0084 12.5005 13.95 12.5005 15C12.5005 15.625 12.6755 16.2167 12.9838 16.7167C13.0588 16.85 13.1505 16.975 13.2505 17.0917L11.7255 17.9334C10.7755 18.4667 9.2255 18.4667 8.2755 17.9334L3.82551 15.4667C2.81717 14.9084 1.99219 13.5084 1.99219 12.3584V7.64167C1.99219 6.49167 2.81717 5.09169 3.82551 4.53336L8.2755 2.06667C9.2255 1.53334 10.7755 1.53334 11.7255 2.06667L16.1755 4.53336C17.1838 5.09169 18.0088 6.49167 18.0088 7.64167Z" stroke="#030A70" stroke-width="1.5" stroke-linecap="round" stroke-linejoin="round"/>
<path d="M19.1667 15C19.1667 15.625 18.9917 16.2167 18.6833 16.7167C18.5083 17.0167 18.2833 17.2833 18.025 17.5C17.4417 18.025 16.675 18.3333 15.8333 18.3333C14.6167 18.3333 13.5583 17.6833 12.9833 16.7167C12.675 16.2167 12.5 15.625 12.5 15C12.5 13.95 12.9833 13.0083 13.75 12.4C14.325 11.9417 15.05 11.6667 15.8333 11.6667C17.675 11.6667 19.1667 13.1583 19.1667 15Z" stroke="#030A70" stroke-width="1.5" stroke-miterlimit="10" stroke-linecap="round" stroke-linejoin="round"/>
<path d="M16.7237 15.8667L14.957 14.1083" stroke="#030A70" stroke-width="1.5" stroke-miterlimit="10" stroke-linecap="round" stroke-linejoin="round"/>
<path d="M16.7081 14.1334L14.9414 15.8917" stroke="#030A70" stroke-width="1.5" stroke-miterlimit="10" stroke-linecap="round" stroke-linejoin="round"/>
</svg>
