<svg width="32" height="25" viewBox="0 0 32 25" fill="none" xmlns="http://www.w3.org/2000/svg">
<path d="M17.6905 7.775C17.6905 6.89643 16.9351 6.78929 16.2226 6.78929L14.128 6.77321V10.4857H15.0065V9.14107H15.9708C16.9565 9.14107 16.7476 9.69286 16.7637 10.4857H17.653V9.7625C17.653 9.26964 17.5726 8.95357 17.0637 8.77679C17.4601 8.61607 17.6958 8.20357 17.6905 7.775ZM16.1155 8.38036H15.0065V7.56071H16.1315C16.4047 7.56071 16.7047 7.61429 16.7047 7.95714C16.7047 8.31071 16.4208 8.38036 16.1155 8.38036ZM15.2208 13.175H12.3976L11.2726 14.3964L10.1744 13.175H6.61189L6.60653 16.8875H10.1101L11.2512 15.6554L12.344 16.8875H14.069L14.0744 15.6393C15.0869 15.6393 16.7155 15.8857 16.7155 14.3911C16.7155 13.4643 16.0565 13.175 15.2208 13.175ZM9.6601 16.1054H7.4851V15.3661H9.42974V14.6107H7.4851V13.9411H9.71903L10.678 15.0232L9.6601 16.1054ZM13.1851 16.5446L11.8297 15.0393L13.1851 13.5714V16.5446ZM15.2101 14.8839H14.0744V13.9411H15.2262C15.5262 13.9411 15.7726 14.0643 15.7726 14.3911C15.7726 14.7339 15.5262 14.8839 15.2101 14.8839ZM13.5172 7.56071V6.77857H10.544V10.4911H13.5172V9.725H11.4333V8.98571H13.4583V8.23036H11.4333V7.56071H13.5172ZM20.7065 14.1768C20.7065 13.2982 19.9512 13.175 19.2547 13.175H17.144L17.1387 16.8875H18.028L18.0333 15.5321H18.9762C19.5655 15.5321 19.769 15.6393 19.769 16.2714L19.7637 16.8875H20.653L20.6583 16.1482C20.6583 15.6714 20.5619 15.3393 20.069 15.1625C20.4815 14.9964 20.7012 14.5839 20.7065 14.1768ZM19.1422 14.7768H18.0333V13.9411H19.1583C19.4315 13.9411 19.7315 13.9946 19.7315 14.3375C19.7315 14.7071 19.4422 14.7768 19.1422 14.7768ZM9.8851 10.4911V6.77857H8.40653L7.35117 9.29643L6.18867 6.77857H4.73689V10.2982L3.23153 6.77857H1.91903L0.327958 10.4911H1.28689L1.62974 9.67143H3.47796L3.82081 10.4911H5.63153V7.5875L6.91724 10.4911H7.69939L8.9851 7.5875V10.4911H9.8851ZM1.94581 8.9L2.54581 7.42143L3.16189 8.9H1.94581ZM27.5208 17.4125V17.1714C26.9422 17.4714 27.3119 17.4125 19.1262 17.4125C19.1262 16.0625 19.1315 16.1321 19.1262 16.0625C19.0351 16.0571 18.9547 16.0571 18.6226 16.0571C18.6226 17.0161 18.6172 16.4214 18.6172 17.4125H16.4958C16.4958 16.7643 16.5012 16.5929 16.5012 15.8482C15.9655 16.1696 15.2797 16.1911 14.6637 16.1804C14.6637 16.9679 14.6583 16.625 14.6583 17.4125H12.0387C11.7655 17.1071 11.894 17.2464 11.2137 16.4804C11.0422 16.6679 10.528 17.225 10.3512 17.4125H5.95831V12.4679H10.4101C10.678 12.7679 10.5601 12.6339 11.2405 13.3893C11.4119 13.2018 11.894 12.6714 12.0815 12.4679H15.1887C15.7137 12.4679 16.153 12.5696 16.4905 12.7679V12.4679C19.3994 12.4679 19.9351 12.3929 20.5458 12.7411V12.4679H24.7351V12.7464C25.3458 12.3768 25.7851 12.4679 28.2119 12.4679V12.7357C28.7637 12.4196 29.1012 12.4571 31.1208 12.4679V3.07143C31.1208 1.65179 29.969 0.5 28.5494 0.5H2.8351C1.41546 0.5 0.263672 1.65179 0.263672 3.07143V8.95357C0.767243 7.78036 1.31903 6.48929 1.50117 6.06607H3.62796C3.85831 6.60714 3.71367 6.26429 4.1101 7.19643V6.06607H6.57439C6.72974 6.39821 7.16903 7.35179 7.31903 7.67321C7.62974 6.94464 7.8601 6.39286 7.99403 6.06607H13.5119C13.5119 6.06071 14.128 6.06607 14.1333 6.06607C16.4744 6.07679 17.0047 6.02321 17.5833 6.35V6.06607H19.7208V6.56429C20.128 6.2375 20.6797 6.06607 21.3655 6.06607H22.844C22.844 6.09286 22.9458 6.08214 22.9672 6.08214H24.703C24.928 6.60714 24.8422 6.40357 25.1744 7.18571V6.08214H27.494C27.7565 6.51071 27.4405 5.98571 28.094 7.06786V6.08214H30.2315V11.0107H28.003C27.7137 10.5286 27.928 10.8929 27.2958 9.8375V11.0107H24.4672C24.1244 10.2179 24.4619 10.9946 24.1137 10.1911H23.0958C22.8708 10.7268 22.978 10.4696 22.753 11.0107H21.3172C20.6583 11.0107 20.1226 10.85 19.7262 10.5339V11.0107H16.1637C16.1476 10.2661 16.1583 9.68214 16.1583 9.68214C16.0619 9.66607 15.9762 9.67143 15.6333 9.67143V11.0161H8.37438V10.4054C8.24046 10.7054 8.22974 10.7214 8.10117 11.0161H6.52081C6.30653 10.5393 6.36546 10.6732 6.2476 10.4054V11.0161H3.41367C3.18867 10.475 3.29581 10.7321 3.07081 10.1964H2.04224C1.81724 10.7321 1.92439 10.475 1.69939 11.0161H0.274386V21.9286C0.274386 23.3482 1.42617 24.5 2.84581 24.5H28.5655C29.9851 24.5 31.1369 23.3482 31.1369 21.9286V17.0857C30.4565 17.5304 29.3851 17.4125 27.5208 17.4125ZM29.4655 13.9571H31.078V13.175H29.3155C28.6297 13.175 28.0405 13.5286 28.0405 14.2839C28.0405 16.0518 30.328 14.9696 30.328 15.7518C30.328 16.025 30.0976 16.0946 29.878 16.0946H28.1637L28.1583 16.8875H29.8726C30.3226 16.8875 30.8155 16.7911 31.078 16.4107V15.0286C30.5155 14.2893 28.9726 14.9589 28.9726 14.3054C28.9726 13.9946 29.219 13.9571 29.4655 13.9571ZM26.4119 16.0893H24.6869L24.6815 16.8821H26.4065C27.1994 16.8821 27.8101 16.5821 27.8101 15.7036C27.8101 13.925 25.5119 15.1036 25.5119 14.2946C25.5119 13.9946 25.7744 13.9518 26.0047 13.9518H27.6333V13.1696H25.8547C25.169 13.1696 24.5958 13.5232 24.5958 14.2786C24.5958 16.0464 26.8833 14.9482 26.8833 15.7464C26.878 16.0357 26.6315 16.0893 26.4119 16.0893ZM24.1512 13.9411V13.175H21.194L21.1887 16.8875H24.1458L24.1512 16.1214L22.0833 16.1054V15.3661H24.1137V14.6107H22.0887V13.9411H24.1512ZM21.1351 8.15C21.119 8.16071 21.0601 8.26786 21.0601 8.55714C21.0601 8.87857 21.1083 8.96964 21.119 8.98036C21.1297 8.98571 21.178 9.00714 21.3012 9.00714L21.6922 8.10179C21.6333 8.10179 21.5797 8.09643 21.5262 8.09643C21.2262 8.09643 21.1512 8.13393 21.1351 8.15ZM21.3601 6.77321C20.1012 6.77321 19.5387 7.41607 19.5387 8.66429C19.5387 9.85357 20.0851 10.4857 21.3065 10.4857H22.3351L22.678 9.66607H24.5155L24.869 10.4857H26.6744V7.70536L28.3458 10.4857H29.6101V6.78929H28.7047V9.36607L27.1458 6.78929H25.7905V10.2929L24.2958 6.78929H22.9672L21.7083 9.70893H21.3119C20.5994 9.70893 20.4494 9.275 20.4494 8.64286C20.4494 7.36786 21.2905 7.57143 22.2226 7.5875V6.77321H21.3601ZM23.6155 7.42143L24.2155 8.9H22.994L23.6155 7.42143ZM18.1994 6.77857V10.4911H19.1047V6.77857H18.1994Z" fill="#030A70"/>
</svg>
