<svg width="25" height="25" viewBox="0 0 25 25" fill="none" xmlns="http://www.w3.org/2000/svg">
<path d="M24.4951 3.97124C23.9788 2.55228 22.8615 1.43872 21.4426 0.922461C20.1332 0.5 18.9416 0.5 16.5224 0.5H9.25724C6.85754 0.5 5.64568 0.5 4.35654 0.898449C2.93382 1.41846 1.81652 2.54027 1.30401 3.96223C0.893555 5.26338 0.893555 6.46323 0.893555 8.86293V16.1363C0.893555 18.548 0.893555 19.7396 1.292 21.0408C1.80826 22.4597 2.92557 23.5733 4.34453 24.0895C5.64568 24.5 6.84553 24.5 9.24898 24.5H16.5299C18.9416 24.5 20.1414 24.5 21.4343 24.1016C22.857 23.5853 23.9788 22.4642 24.4944 21.0415C24.9048 19.7404 24.9048 18.5405 24.9048 16.1371V8.88319C24.9048 6.47149 24.9048 5.27164 24.4944 3.97049L24.4951 3.97124ZM18.324 8.6063L17.3898 9.53677C17.2022 9.7086 16.9133 9.71236 16.7212 9.54427C15.8185 8.78639 14.6772 8.36768 13.5006 8.36393C12.5274 8.36393 11.5579 8.68434 11.5579 9.57579C11.5579 10.4747 12.5972 10.7756 13.797 11.2251C15.8996 11.929 17.6389 12.8077 17.6389 14.8674C17.6389 17.1111 15.8996 18.6508 13.0586 18.8189L12.7968 20.0225C12.7495 20.2491 12.5506 20.4097 12.3203 20.4097H10.5261L10.4361 20.4022C10.1704 20.3437 10.0024 20.078 10.0571 19.8124L10.3385 18.542C9.25949 18.2726 8.26749 17.7294 7.45409 16.9707V16.9587C7.26649 16.7711 7.26649 16.4665 7.45409 16.2789L8.45434 15.3094C8.64568 15.1338 8.93908 15.1338 9.12667 15.3094C10.0376 16.1693 11.257 16.6496 12.5191 16.6301C13.8203 16.6301 14.6885 16.0793 14.6885 15.2074C14.6885 14.3354 13.809 14.1088 12.1484 13.4875C10.3858 12.8579 8.71697 11.9672 8.71697 9.88419C8.71697 7.46498 10.7257 6.28464 13.1097 6.17509L13.3595 4.94372C13.4068 4.71711 13.6094 4.55653 13.8405 4.56103H15.6189L15.7202 4.57304C15.9783 4.63157 16.1502 4.88144 16.0917 5.14332L15.8223 6.51501C16.7212 6.81216 17.5729 7.28489 18.3 7.90245L18.3233 7.92571C18.5109 8.12531 18.5109 8.42621 18.3233 8.60555L18.324 8.6063Z" fill="#030A70"/>
</svg>
