<svg width="27" height="21" viewBox="0 0 27 21" fill="none" xmlns="http://www.w3.org/2000/svg">
<path d="M23.8747 7.82589C23.8747 7.47321 23.6292 7.28571 23.1783 7.28571H22.9595V8.39732H23.1694C23.6292 8.39732 23.8747 8.20089 23.8747 7.82589ZM24.214 0.5H2.78544C1.6024 0.5 0.642578 1.45982 0.642578 2.64286V18.3571C0.642578 19.5402 1.6024 20.5 2.78544 20.5H24.214C25.397 20.5 26.3569 19.5402 26.3569 18.3571V2.64286C26.3569 1.45982 25.397 0.5 24.214 0.5ZM22.2453 6.70089C23.2542 6.70089 24.6069 6.51786 24.6069 7.79018C24.6069 8.35268 24.3122 8.71429 23.772 8.82589L24.9238 10.3616H24.0488L23.0578 8.89732H22.9595V10.3616H22.2453V6.70089ZM19.7497 6.70536H21.772V7.33036H20.464V8.14286H21.7274V8.75893H20.464V9.75H21.772V10.3661H19.7497V6.70536ZM16.6828 6.70536L17.6604 9.16964L18.6515 6.70536H19.4328L17.8479 10.4643H17.464L15.9015 6.70536H16.6828ZM14.1872 6.57143C15.2899 6.57143 16.1783 7.46429 16.1783 8.5625C16.1783 9.66518 15.2854 10.5536 14.1872 10.5536C13.0845 10.5536 12.1961 9.66072 12.1961 8.5625C12.1961 7.45982 13.089 6.57143 14.1872 6.57143ZM11.9863 6.84375V7.69196C11.089 6.79464 9.89704 7.48214 9.89704 8.54018C9.89704 9.65625 11.1247 10.2589 11.9863 9.39732V10.2455C10.6604 10.8839 9.16044 9.99107 9.16044 8.54018C9.16044 7.14732 10.6381 6.17411 11.9863 6.84375ZM7.64704 9.80357C8.15597 9.80357 8.64704 9.12054 7.49972 8.71429C6.83008 8.46875 6.59794 8.20536 6.59794 7.70089C6.59794 6.66518 7.96401 6.29911 8.81669 7.0625L8.44169 7.54464C7.9774 7.02679 7.33008 7.26786 7.33008 7.65625C7.33008 7.85268 7.45061 7.96429 7.87919 8.11607C8.69169 8.41071 8.93276 8.67411 8.93276 9.25893C8.93276 10.5759 7.20061 10.9286 6.40597 9.76339L6.86579 9.32143C7.03097 9.63839 7.30776 9.80357 7.64704 9.80357ZM3.11579 10.3661H2.07115V6.70536H3.11579C4.28097 6.70536 5.08454 7.46429 5.08454 8.54018C5.08454 9.36607 4.49526 10.3661 3.11579 10.3661ZM6.12919 10.3661H5.4149V6.70536H6.12919V10.3661ZM24.9283 18.4018C24.9283 18.7679 24.6247 19.0714 24.2586 19.0714H6.35686C14.8211 17.4821 23.4417 12.8571 24.9283 11.9286V18.4018ZM3.95061 7.625C3.71847 7.40625 3.43276 7.33036 2.97294 7.33036H2.78544V9.75H2.97294C3.43276 9.75 3.73186 9.66072 3.95061 9.46429C4.20508 9.23214 4.34794 8.89286 4.34794 8.54018C4.34794 8.1875 4.20508 7.84821 3.95061 7.625Z" fill="#030A70"/>
</svg>
