<svg width="21" height="25" viewBox="0 0 21 25" fill="none" xmlns="http://www.w3.org/2000/svg">
<path d="M19.5074 20.614C19.9564 21.613 19.5044 22.875 18.5674 23.384C18.0314 23.676 17.4174 23.947 16.8044 24.099C15.7933 24.3406 14.7596 24.4751 13.7204 24.5C12.0584 24.5 10.3914 23.548 9.67337 22.39C9.48837 22.79 8.81837 23.593 7.64336 23.971C6.90236 24.211 6.00837 24.5 4.14137 24.498C2.46837 24.497 1.51437 23.738 1.01137 23.102C0.207365 22.09 0.0893653 20.804 0.246365 19.938L0.254365 19.896C0.885365 16.729 1.74837 10.971 2.14637 8.08602L2.15037 8.05802C2.25837 7.25802 2.36937 6.45802 2.43537 5.65202C2.46737 5.24602 2.48937 4.83802 2.49337 4.43102C2.49737 4.04602 2.46237 3.66102 2.46537 3.27702C2.46937 2.91402 2.52837 2.54702 2.69837 2.22502C2.98524 1.70557 3.45501 1.31136 4.01637 1.11902C4.60336 0.923017 5.21637 0.844017 5.82737 0.773017C6.45143 0.698506 7.07688 0.636161 7.70337 0.586017C8.46741 0.529722 9.23325 0.501036 9.99936 0.500017C11.3094 0.499017 12.6294 0.520017 13.9204 0.787017C15.2364 1.05802 16.5664 1.57702 17.6044 2.48602C18.3154 3.10902 18.8804 3.89402 19.3044 4.75402C19.6764 5.51202 19.8274 6.30902 19.9174 6.91802C20.0771 8.01173 20.0351 9.12545 19.7934 10.204C19.6024 10.9907 19.2802 11.7395 18.8404 12.419C18.3464 13.187 17.7114 13.884 16.9034 14.547C17.3954 15.977 18.6794 18.769 19.5074 20.614ZM4.78737 3.42202C4.81937 3.95202 4.82337 4.48602 4.80037 5.01802C4.77584 5.56136 4.73248 6.10368 4.67037 6.64402C4.61037 7.18202 4.53837 7.71902 4.46537 8.25502L4.44137 8.43002C4.21137 10.107 3.97037 11.782 3.71637 13.454C3.44433 15.2084 3.15565 16.9601 2.85037 18.709C2.71137 19.525 2.40037 20.57 2.82637 21.349C3.20637 22.044 4.18037 22.129 4.86037 22.059C7.33437 21.806 7.72737 21.256 7.72737 21.256C7.23437 20.709 7.66337 18.217 8.15937 14.868H9.91837L11.7584 20.435C11.7584 20.435 12.3014 22.159 13.8084 22.076C15.7404 21.97 17.1614 21.528 17.3664 21.283C16.7714 20.951 15.0704 16.698 14.1444 13.575C14.5924 13.301 15.0274 13.004 15.4384 12.671C15.9984 12.214 16.5184 11.687 16.9154 11.068C17.2052 10.6223 17.4182 10.1312 17.5454 9.61502C17.6079 9.33784 17.6497 9.0564 17.6704 8.77302C17.712 8.27755 17.6965 7.77896 17.6244 7.28702C17.5544 6.81502 17.4514 6.29002 17.2414 5.86502C16.8494 5.06802 16.2954 4.37302 15.5404 3.92902C14.2654 3.17902 12.7954 3.03702 11.3634 2.95902C9.80958 2.8725 8.2512 2.92337 6.70637 3.11102C6.53237 3.13102 4.78037 3.28602 4.78837 3.42102L4.78737 3.42202ZM9.52137 5.57702C9.22536 7.66202 8.98837 9.41902 8.56137 12.154C9.71437 12.129 12.3314 12.588 12.9074 8.85002C13.3844 5.74002 11.2584 5.45202 9.52137 5.57702Z" fill="#030A70"/>
</svg>
